{
  "accessors": [
    {
      "bufferView": 2,
      "componentType": 5126,
      "count": 44237,
      "max": [
        28.269573211669922,
        5.2242751121521,
        20.973804473876953
      ],
      "min": [
        -26.792707443237305,
        -5.5282769203186035,
        -11.056547164916992
      ],
      "type": "VEC3"
    },
    {
      "bufferView": 2,
      "byteOffset": 530844,
      "componentType": 5126,
      "count": 44237,
      "max": [
        0.991025984287262,
        0.9999932050704956,
        0.9999674558639526
      ],
      "min": [
        -0.999816358089447,
        -0.9999862909317017,
        -0.9999806880950928
      ],
      "type": "VEC3"
    },
    {
      "bufferView": 1,
      "componentType": 5126,
      "count": 44237,
      "max": [
        0.9994149804115295,
        0.9448239803314209
      ],
      "min": [
        0.0004879999905824661,
        0.0004949999856762588
      ],
      "type": "VEC2"
    },
    {
      "bufferView": 0,
      "componentType": 5125,
      "count": 237816,
      "type": "SCALAR"
    }
  ],
  "asset": {
    "extras": {
      "author": "matousekfoto (https://sketchfab.com/matousekfoto)",
      "license": "CC-BY-4.0 (http://creativecommons.org/licenses/by/4.0/)",
      "source": "https://sketchfab.com/3d-models/banana-4d4c8d85a09b476c8136f0c4cd24c45a",
      "title": "Banana"
    },
    "generator": "Sketchfab-12.67.0",
    "version": "2.0"
  },
  "bufferViews": [
    {
      "buffer": 0,
      "byteLength": 951264,
      "name": "floatBufferViews",
      "target": 34963
    },
    {
      "buffer": 0,
      "byteLength": 353896,
      "byteOffset": 951264,
      "byteStride": 8,
      "name": "floatBufferViews",
      "target": 34962
    },
    {
      "buffer": 0,
      "byteLength": 1061688,
      "byteOffset": 1305160,
      "byteStride": 12,
      "name": "floatBufferViews",
      "target": 34962
    }
  ],
  "buffers": [
    {
      "byteLength": 2366848,
      "uri": "scene.bin"
    }
  ],
  "images": [
    {
      "uri": "textures/ripe-banana_u1_v1_baseColor.png"
    }
  ],
  "materials": [
    {
      "doubleSided": true,
      "name": "ripe-banana_u1_v1",
      "pbrMetallicRoughness": {
        "baseColorTexture": {
          "index": 0
        },
        "metallicFactor": 0.13995578646816334,
        "roughnessFactor": 0.6612569038111605
      }
    }
  ],
  "meshes": [
    {
      "name": "Object_0",
      "primitives": [
        {
          "attributes": {
            "NORMAL": 1,
            "POSITION": 0,
            "TEXCOORD_0": 2
          },
          "indices": 3,
          "material": 0,
          "mode": 4
        }
      ]
    }
  ],
  "nodes": [
    {
      "children": [
        1
      ],
      "matrix": [
        0.005577781286189021,
        0.00014218541129480938,
        2.5343499322471827e-21,
        0.0,
        -0.0001409198590011018,
        0.005528135286411162,
        0.0007427804647866879,
        0.0,
        1.892835844667217e-05,
        -0.0007425392686362398,
        0.005529930830039248,
        0.0,
        -0.02042114920914173,
        5.750371932983399,
        -4.742310047149657,
        1.0
      ],
      "name": "Sketchfab_model"
    },
    {
      "children": [
        2
      ],
      "name": "ripe-banana.obj.cleaner.materialmerger.gles"
    },
    {
      "mesh": 0,
      "name": "Object_2"
    }
  ],
  "samplers": [
    {
      "magFilter": 9729,
      "minFilter": 9987,
      "wrapS": 10497,
      "wrapT": 10497
    }
  ],
  "scene": 0,
  "scenes": [
    {
      "name": "Sketchfab_Scene",
      "nodes": [
        0
      ]
    }
  ],
  "textures": [
    {
      "sampler": 0,
      "source": 0
    }
  ]
}
